<svg xmlns="http://www.w3.org/2000/svg" data-name="Layer 1" viewBox="0 0 358 361.5">
  <path d="M357.9 339.3 356.6 186l-.2-20-20 .2-10.1.1 7.3-7.3 14.1-14.2-14.3-14.2L224.6 22.7 210.4 8.6l-14.1 14.2-2.9 2.9V20l-.1-20-20 .1L20 .7 0 .8l.1 20 1 227.1c-.5 4.2-.8 8.5-.8 12.8.1 12.8 2.6 25.1 7.3 36.6 4.8 13.5 12.6 25.8 23 36.2 18.2 18.1 42.4 28 68 28h.8l238.6-2 20-.2-.1-20ZM193.5 54l17-17.1 108.9 107.9-21.5 21.7-56.5.5-47.6-47.6-32.7-32.7 12.5-12.6L193.5 54ZM20.1 20.8l153.3-.6.1 25.7L128.8 91H20.4l-.3-70.2Zm88.8 90.1-69.3 69.9-.1.1H20.8v-.1l-.3-69.9h88.4ZM20.8 201h-.2s.04-.07.06-.1h.14v.1Zm129.3 140.1h-1.2l-49.6.4h-.7c-7.2 0-14.2-1-20.9-2.9-1.2-.3-2.4-.7-3.6-1.1-3.5-1.2-7-2.6-10.3-4.3-1.1-.5-2.2-1.1-3.2-1.8-6.4-3.7-12.2-8.2-17.3-13.5-.9-.9-1.7-1.8-2.5-2.7s-1.6-1.9-2.3-2.8c-.8-1-1.5-1.9-2.2-2.9-.4-.5-.7-1-1.1-1.5-.7-1-1.4-2-2-3.1-1.7-2.8-3.2-5.7-4.6-8.7-.4-.9-.9-1.9-1.2-2.9-.4-1.1-.9-2.2-1.3-3.4 0 0 0-.1-.1-.1-1.8-5.1-3-10.4-3.6-15.9v-.1c-.3-2.8-.5-5.6-.5-8.4v-.7c0-17.5 5.9-33.6 15.8-46.5 5.2-6.8 11.4-12.6 18.5-17.3 12-8 26.3-12.6 41.7-12.8l9-.1h.2l22.5-.2h5.3l21.5-.2V341h.1l-6.4.1Zm16.7-173.5-51.6.4-17.4-17.4 39.3-39.7.5-.5 9.2-9.2.2-.2 10 10 16.8 16.8 20.1 20.1 19.4 19.4h-.5l-18.8.2-20 .2-7.2-.1Zm80.4 172.6h-.3l-38.3.3-32.1.3V187.5l17.6-.2 38.6-.3h.5l13.8-.1h.2v153.3Zm19.9-.2V186.7l10.8-.1 28.4-.2 30.3-.3 1.3 153.3-70.8.6Zm-146.7-73.9c0 13-8.5 24-20.2 27.8-2.8.9-5.9 1.4-9 1.4-8.4 0-16-3.6-21.3-9.2-4.9-5.2-7.9-12.3-7.9-20 0-16.2 13.1-29.2 29.2-29.2s29.2 13 29.2 29.2Z"/>
</svg>