<svg width="94px" height="94px" viewBox="0 0 94 94" version="1.1" xmlns="http://www.w3.org/2000/svg" xmlns:xlink="http://www.w3.org/1999/xlink">
	<g id="Page-1" stroke="none" stroke-width="1" fill="none" fill-rule="evenodd">
		<g id="Artboard" transform="translate(-45.000000, -144.000000)">
			<g id="craft-color-swatches" transform="translate(45.000000, 144.000000)">
				<circle id="background" fill="#4DC0B5" cx="47" cy="47" r="47"></circle>
				<g id="icon" transform="translate(25.000000, 25.000000)" fill="#FFFFFF" fill-rule="nonzero">
					<path d="M2.76,0 C1.23832,0 0,1.23832 0,2.76 L0,30.36 L0,43.24 C0,44.76168 1.23832,46 2.76,46 L43.24,46 C44.76168,46 46,44.76168 46,43.24 L46,30.36 C46,28.83832 44.76168,27.6 43.24,27.6 L31.4093741,27.6 L42.4457806,16.567187 C43.5185006,15.490787 43.5185006,13.7407759 42.4457806,12.6643741 L33.3356259,3.55781259 C32.2923441,2.51637259 30.474253,2.51637241 29.432813,3.55781259 L18.4,14.5906259 L18.4,2.76 C18.4,1.23832 17.16168,0 15.64,0 L2.76,0 Z M2.76,1.84 L15.64,1.84 C16.14784,1.84 16.56,2.254 16.56,2.76 L16.56,14.72 L1.84,14.72 L1.84,2.76 C1.84,2.254 2.25216,1.84 2.76,1.84 Z M31.3842194,4.59281259 C31.6199694,4.59304241 31.855287,4.68026963 32.034687,4.85875 L41.14125,13.965313 C41.50005,14.324113 41.50005,14.90745 41.14125,15.26625 L32.6851565,23.725937 L22.2776565,13.3148435 L30.73375,4.85875 C30.91407,4.67935 31.1484694,4.59258259 31.3842194,4.59281259 Z M20.9767194,14.6157806 L31.3842194,25.0268741 L28.8075,27.6 L15.7442194,27.6 L11.866563,23.725937 L20.9767194,14.6157806 Z M1.83999982,16.56 L16.4306259,16.56 L5.390625,27.6 L2.76,27.6 C2.4656,27.6 2.1894563,27.6591192 1.9226563,27.7437592 C1.8968963,27.7529592 1.86575982,27.7489112 1.83999982,27.7581112 L1.83999982,16.56 Z M10.565625,25.0268741 L13.1423435,27.6 L7.9925,27.6 L10.565625,25.0268741 Z M2.76,29.44 L5.77156259,29.44 L14.72,29.44 L14.72,44.16 L2.76,44.16 C2.25216,44.16 1.84,43.746 1.84,43.24 L1.84,30.36 C1.84,29.854 2.25216,29.44 2.76,29.44 Z M16.56,29.44 L29.188437,29.44 L29.44,29.44 L29.44,44.16 L16.56,44.16 L16.56,29.44 Z M31.28,29.44 L43.24,29.44 C43.74784,29.44 44.16,29.854 44.16,30.36 L44.16,43.24 C44.16,43.746 43.74784,44.16 43.24,44.16 L31.28,44.16 L31.28,29.44 Z M8.28,34.04 C6.75832,34.04 5.52,35.27832 5.52,36.8 C5.52,38.32168 6.75832,39.56 8.28,39.56 C9.80168,39.56 11.04,38.32168 11.04,36.8 C11.04,35.27832 9.80168,34.04 8.28,34.04 Z M8.28,35.88 C8.78784,35.88 9.2,36.294 9.2,36.8 C9.2,37.306 8.78784,37.72 8.28,37.72 C7.77216,37.72 7.36,37.306 7.36,36.8 C7.36,36.294 7.77216,35.88 8.28,35.88 Z" id="Shape"></path>
				</g>
			</g>
		</g>
	</g>
</svg>