<svg xmlns="http://www.w3.org/2000/svg" xml:space="preserve" viewBox="0 0 1000 1000">
  <path fill="#FFF" d="M501.4 953.7 108.5 726.9V273.2L501.4 46.3l392.9 226.9v453.7L501.4 953.7zM149.3 703.3l352.1 203.3 352.1-203.3V296.7L501.4 93.4 149.3 296.7v406.6z"/>
  <radialGradient id="a" cx="697.553" cy="410.395" r="445.33" fx="1079.87" fy="409.125" gradientTransform="matrix(.8377 -.5462 -1.2737 -1.9536 459.214 1670.073)" gradientUnits="userSpaceOnUse">
    <stop offset=".037" stop-color="#d51e69"/>
    <stop offset=".144" stop-color="#b41e7c"/>
    <stop offset=".273" stop-color="#921d90"/>
    <stop offset=".342" stop-color="#851d97"/>
    <stop offset=".412" stop-color="#7c209d"/>
    <stop offset=".526" stop-color="#6426ae"/>
    <stop offset=".651" stop-color="#4230c5"/>
    <stop offset=".712" stop-color="#3c39cc"/>
    <stop offset=".81" stop-color="#2a50e0"/>
    <stop offset=".879" stop-color="#1b64f2"/>
  </radialGradient>
  <path fill="url(#a)" d="M853.5 296.7v406.6L501.4 906.6 149.3 703.3V296.7L501.4 93.4z"/>
  <radialGradient id="b" cx="702.007" cy="413.536" r="547.419" fx="1171.968" fy="411.976" gradientTransform="matrix(.8377 -.5462 -1.2737 -1.9536 463.635 1675.274)" gradientUnits="userSpaceOnUse">
    <stop offset=".037" stop-color="#d51e69"/>
    <stop offset=".144" stop-color="#b41e7c"/>
    <stop offset=".273" stop-color="#921d90"/>
    <stop offset=".342" stop-color="#851d97"/>
    <stop offset=".412" stop-color="#7c209d"/>
    <stop offset=".526" stop-color="#6426ae"/>
    <stop offset=".651" stop-color="#4230c5"/>
    <stop offset=".712" stop-color="#3c39cc"/>
    <stop offset=".81" stop-color="#2a50e0"/>
    <stop offset=".879" stop-color="#1b64f2"/>
  </radialGradient>
  <path fill="url(#b)" d="M501.6 0 68.7 249.9V749l432.2 251 432.7-250.9.5-499.2L501.6 0zm392.7 726.9L501.4 953.7 108.5 726.8V273.2L501.4 46.3l392.9 226.9v453.7z"/>
  <path fill="#FFF" d="M853.5 296.7v406.6L501.4 906.6 149.3 703.3V296.7L501.4 93.4z" opacity=".2"/>
  <path fill="#FFF" d="M344.2 521.5h.2v-.3c0 .2-.1.2-.2.3z"/>
  <path fill="#FFF" d="M344.4 521.3v.3h-.2c.1-.2.2-.2.2-.3z"/>
  <path fill="#FFF" d="m681.5 659.9-1.3-153.3-.2-20-20 .2-10.1.1 7.3-7.3 14.1-14.2-14.3-14.2-108.8-107.9-14.2-14.1-14.1 14.2-2.9 2.9v-5.7l-.1-20-20 .1-153.3.6-20 .1.1 20 1 227.1c-.5 4.2-.8 8.5-.8 12.8.1 12.8 2.6 25.1 7.3 36.6 4.8 13.5 12.6 25.8 23 36.2 18.2 18.1 42.4 28 68 28h.8l238.6-2 20-.2-.1-20zM517.1 374.6l17-17.1L643 465.4l-21.5 21.7-56.5.5-47.6-47.6-32.7-32.7 12.5-12.6 19.9-20.1zm-173.4-33.2 153.3-.6.1 25.7-44.7 45.1H344l-.3-70.2zm.4 90.1h88.4l-69.3 69.9-.1.1h-18.7v-.1l-.3-69.9zm136 230.1-6.4.1h-1.2l-49.6.4h-.7c-7.2 0-14.2-1-20.9-2.9-1.2-.3-2.4-.7-3.6-1.1-3.5-1.2-7-2.6-10.3-4.3-1.1-.5-2.2-1.1-3.2-1.8-6.4-3.7-12.2-8.2-17.3-13.5-.9-.9-1.7-1.8-2.5-2.7-.8-.9-1.6-1.9-2.3-2.8-.8-1-1.5-1.9-2.2-2.9-.4-.5-.7-1-1.1-1.5-.7-1-1.4-2-2-3.1-1.7-2.8-3.2-5.7-4.6-8.7-.4-.9-.9-1.9-1.2-2.9-.4-1.1-.9-2.2-1.3-3.4 0 0 0-.1-.1-.1-1.8-5.1-3-10.4-3.6-15.9v-.1c-.3-2.8-.5-5.6-.5-8.4v-.7c0-17.5 5.9-33.6 15.8-46.5 5.2-6.8 11.4-12.6 18.5-17.3 12-8 26.3-12.6 41.7-12.8l9-.1h.2l22.5-.2H458.5l21.5-.2v153.4zm10.3-173.4-51.6.4-17.4-17.4 39.3-39.7.5-.5 9.2-9.2.2-.2 10 10 16.8 16.8 20.1 20.1 19.4 19.4h-.5l-18.8.2-20 .2-7.2-.1zm80.3 172.6h-.2l-38.3.3-32.1.3V508.1l17.6-.2 38.6-.3h.5l13.8-.1h.2v153.3zm20-.2V507.3l10.8-.1 28.4-.2 30.3-.3 1.3 153.3-70.8.6z"/>
  <path fill="#FFF" d="M444 586.7c0 13-8.5 24-20.2 27.8-2.8.9-5.9 1.4-9 1.4-8.4 0-16-3.6-21.3-9.2-4.9-5.2-7.9-12.3-7.9-20 0-16.2 13.1-29.2 29.2-29.2s29.2 13 29.2 29.2z"/>
</svg>